<?xml version="1.0" standalone="no"?>
<!DOCTYPE svg PUBLIC "-//W3C//DTD SVG 1.1//EN" "http://www.w3.org/Graphics/SVG/1.1/DTD/svg11.dtd" >
<svg>
<metadata>
Created by FontForge 20090914 at Sun Jan 29 05:25:30 2017
 By www-data
Kaiserzharkhan &#194;&#169; (http://truefonts.blogspot.com). 2013. FREE FONT
</metadata>
<defs>
<font id="DISPLAYFREETFB" horiz-adv-x="1014" >
  <font-face 
    font-family="DISPLAY FREE TFB"
    font-weight="400"
    font-stretch="normal"
    units-per-em="2048"
    panose-1="2 0 5 0 0 0 0 0 0 0"
    ascent="1638"
    descent="-410"
    x-height="2208"
    cap-height="2204"
    bbox="-3 -450 1063 2212"
    underline-thickness="150"
    underline-position="-142"
    unicode-range="U+0020-U+F002"
  />
<missing-glyph horiz-adv-x="1024" 
 />
    <glyph glyph-name=".notdef" horiz-adv-x="1024" 
 />
    <glyph glyph-name="space" unicode=" " horiz-adv-x="1373" 
 />
    <glyph glyph-name="space" unicode="&#xa0;" horiz-adv-x="1373" 
 />
    <glyph glyph-name="exclam" unicode="!" horiz-adv-x="672" 
 />
    <glyph glyph-name="quotedbl" unicode="&#x22;" horiz-adv-x="672" 
 />
    <glyph glyph-name="numbersign" unicode="#" horiz-adv-x="1336" 
 />
    <glyph glyph-name="dollar" unicode="$" 
 />
    <glyph glyph-name="percent" unicode="%" horiz-adv-x="1610" 
 />
    <glyph glyph-name="ampersand" unicode="&#x26;" horiz-adv-x="1683" 
 />
    <glyph glyph-name="quotesingle" unicode="'" horiz-adv-x="346" 
 />
    <glyph glyph-name="parenleft" unicode="(" horiz-adv-x="758" 
 />
    <glyph glyph-name="parenright" unicode=")" horiz-adv-x="758" 
 />
    <glyph glyph-name="asterisk" unicode="*" horiz-adv-x="1024" 
 />
    <glyph glyph-name="plus" unicode="+" 
 />
    <glyph glyph-name="comma" unicode="," horiz-adv-x="557" 
 />
    <glyph glyph-name="hyphen" unicode="-" horiz-adv-x="670" 
 />
    <glyph glyph-name="hyphen" unicode="&#xad;" horiz-adv-x="670" 
 />
    <glyph glyph-name="period" unicode="." horiz-adv-x="557" 
 />
    <glyph glyph-name="slash" unicode="/" horiz-adv-x="569" 
 />
    <glyph glyph-name="zero" unicode="0" horiz-adv-x="1457" 
d="M165 2208h688c15.333 -10 44.666 -36.667 87.999 -80c-43.333 -43.333 -72.666 -70 -87.999 -80h-688c-15.333 10 -44.666 36.667 -87.999 80c43.333 43.333 72.666 70 87.999 80zM77 2048c43.333 -43.333 70 -72.666 80 -87.999v-688
c-10 -15.333 -36.667 -44.666 -80 -87.999c-43.333 43.333 -70 72.666 -80 87.999v688c10 15.333 36.667 44.666 80 87.999zM937 2048c43.333 -43.333 70 -72.666 80 -87.999v-688c-10 -15.333 -36.667 -44.666 -80 -87.999c-43.333 43.333 -70 72.666 -80 87.999v688
c10 15.333 36.667 44.666 80 87.999zM77 1024c43.333 -43.333 70 -72.666 80 -87.999v-688c-10 -15.333 -36.667 -44.666 -80 -87.999c-43.333 43.333 -70 72.666 -80 87.999v688c10 15.333 36.667 44.666 80 87.999zM937 1024c43.333 -43.333 70 -72.666 80 -87.999v-688
c-10 -15.333 -36.667 -44.666 -80 -87.999c-43.333 43.333 -70 72.666 -80 87.999v688c10 15.333 36.667 44.666 80 87.999zM169 160h688c15.333 -10 44.666 -36.667 87.999 -80c-43.333 -43.333 -72.666 -70 -87.999 -80h-688c-15.333 10 -44.666 36.667 -87.999 80
c43.333 43.333 72.666 70 87.999 80z" />
    <glyph glyph-name="one" unicode="1" horiz-adv-x="688" 
d="M298 2204c43.333 -43.333 70 -72.666 80 -88v-848c-10 -15.333 -36.667 -44.666 -80 -87.999c-43.333 43.333 -70 72.666 -80 87.999v848c10 15.333 36.667 44.666 80 88zM298 1020c2 0 28.667 -28 80 -84v-848c-10 -15.333 -36.667 -44.666 -80 -87.999
c-43.333 43.333 -70 72.666 -80 87.999v848c51.333 56 78 84 80 84z" />
    <glyph glyph-name="two" unicode="2" horiz-adv-x="1494" 
d="M186 2208h688c15.333 -10 44.666 -36.667 87.999 -80c-43.333 -43.333 -72.666 -70 -87.999 -80h-688c-15.333 10 -44.666 36.667 -87.999 80c43.333 43.333 72.666 70 87.999 80zM958 2048c43.333 -43.333 70 -72.666 80 -87.999v-688
c-10 -15.333 -36.667 -44.666 -80 -87.999c-43.333 43.333 -70 72.666 -80 87.999v688c10 15.333 36.667 44.666 80 87.999zM190 1184h688c15.333 -10 44.666 -36.667 87.999 -80c-43.333 -43.333 -72.666 -70 -87.999 -80h-688c-15.333 10 -44.666 36.667 -87.999 80
c43.333 43.333 72.666 70 87.999 80zM94 1024c43.333 -43.333 70 -72.666 80 -87.999v-688c-10 -15.333 -36.667 -44.666 -80 -87.999c-43.333 43.333 -70 72.666 -80 87.999v688c10 15.333 36.667 44.666 80 87.999zM190 160h688c15.333 -10 44.666 -36.667 87.999 -80
c-43.333 -43.333 -72.666 -70 -87.999 -80h-688c-15.333 10 -44.666 36.667 -87.999 80c43.333 43.333 72.666 70 87.999 80z" />
    <glyph glyph-name="three" unicode="3" horiz-adv-x="1334" 
d="M171 2208h688c15.333 -10 44.666 -36.667 87.999 -80c-43.333 -43.333 -72.666 -70 -87.999 -80h-688c-15.333 10 -44.666 36.667 -87.999 80c43.333 43.333 72.666 70 87.999 80zM943 2048c43.333 -43.333 70 -72.666 80 -87.999v-688
c-10 -15.333 -36.667 -44.666 -80 -87.999c-43.333 43.333 -70 72.666 -80 87.999v688c10 15.333 36.667 44.666 80 87.999zM175 1184h688c15.333 -10 44.666 -36.667 87.999 -80c-43.333 -43.333 -72.666 -70 -87.999 -80h-688c-15.333 10 -44.666 36.667 -87.999 80
c43.333 43.333 72.666 70 87.999 80zM943 1024c43.333 -43.333 70 -72.666 80 -87.999v-688c-10 -15.333 -36.667 -44.666 -80 -87.999c-43.333 43.333 -70 72.666 -80 87.999v688c10 15.333 36.667 44.666 80 87.999zM175 160h688c15.333 -10 44.666 -36.667 87.999 -80
c-43.333 -43.333 -72.666 -70 -87.999 -80h-688c-15.333 10 -44.666 36.667 -87.999 80c43.333 43.333 72.666 70 87.999 80z" />
    <glyph glyph-name="four" unicode="4" horiz-adv-x="1447" 
d="M123 2204c43.333 -43.333 70 -72.666 80 -88v-848c-10 -15.333 -36.667 -44.666 -80 -87.999c-43.333 43.333 -70 72.666 -80 87.999v848c10 15.333 36.667 44.666 80 88zM983 2204c43.333 -43.333 70 -72.666 80 -88v-848c-10 -15.333 -36.667 -44.666 -80 -87.999
c-43.333 43.333 -70 72.666 -80 87.999v848c10 15.333 36.667 44.666 80 88zM215 1180h688c15.333 -10 44.666 -36.667 87.999 -80c-43.333 -43.333 -72.666 -70 -87.999 -80h-688c-15.333 10 -44.666 36.667 -87.999 80c43.333 43.333 72.666 70 87.999 80zM983 1020
c2 0 28.667 -28 80 -84v-848c-10 -15.333 -36.667 -44.666 -80 -87.999c-43.333 43.333 -70 72.666 -80 87.999v848c51.333 56 78 84 80 84z" />
    <glyph glyph-name="five" unicode="5" horiz-adv-x="1450" 
d="M10 2208h1012v-4c-62 -67.333 -114 -119.333 -156 -156h-700c-3.33301 0 -55.333 52 -156 156v4zM6 2124h4c2.66699 0 54.667 -53.333 156 -160v-680c0 -22 -25.333 -54 -76 -96c0 -3.33301 -26.667 -30 -80 -80h-4v152c0 2.66699 1.33301 4 4 4l-4 8v852zM198 1184
h824.002v-4c-91.333 -100 -143.333 -152 -156 -156h-856v4c95.333 101.333 148.666 152 159.999 152c3.33301 2.66699 12.666 4 27.999 4zM1022 1100l4 0.000976562v-1016h-4l-156 160v696c26.667 31.333 78.667 84.666 156 159.999zM866.002 160.001
c52 -47.333 103.999 -99.333 155.999 -156v-4h-848c-2.66699 0 -4 1.33301 -4 4l-8 -4h-152v4c98.667 104 153.334 156 164.001 156h692z" />
    <glyph glyph-name="six" unicode="6" horiz-adv-x="1438" 
d="M1 2208h924c15.333 -10 44.666 -36.667 87.999 -80c-43.333 -43.333 -72.666 -70 -87.999 -80h-768c-3.33301 0 -55.333 52 -156 156v4zM-3 2124h4c2.66699 0 54.667 -53.333 156 -160v-692c-10 -15.333 -36.667 -44.666 -80 -87.999
c-43.333 43.333 -70 72.666 -80 87.999v852zM169 1184h844v-4c-91.333 -100 -143.333 -152 -156 -156h-688c-15.333 10 -44.666 36.667 -87.999 80c43.333 43.333 72.666 70 87.999 80zM1013 1100l4 0.000976562v-1020h-4c-55.333 55.333 -107.333 110 -156 164v696
c26.667 31.333 78.667 84.666 156 159.999zM77 1024c43.333 -43.333 70 -72.666 80 -87.999v-692c-46 -51.333 -98 -106 -156 -164h-4v856c10 15.333 36.667 44.666 80 87.999zM857 160.001c52 -47.333 103.999 -99.333 155.999 -156v-4h-848c-2.66699 0 -4 1.33301 -4 4
l-8 -4h-152v4c98.667 104 153.334 156 164.001 156h692z" />
    <glyph glyph-name="seven" unicode="7" horiz-adv-x="1469" 
d="M184 2204h688c15.333 -10 44.666 -36.667 87.999 -80c-43.333 -43.333 -72.666 -70 -87.999 -80h-688c-15.333 10 -44.666 36.667 -87.999 80c43.333 43.333 72.666 70 87.999 80zM956 2044c43.333 -43.333 70 -72.666 80 -87.999v-688
c-10 -15.333 -36.667 -44.666 -80 -87.999c-43.333 43.333 -70 72.666 -80 87.999v688c10 15.333 36.667 44.666 80 87.999zM956 1020c2 0 28.667 -28 80 -84v-848c-10 -15.333 -36.667 -44.666 -80 -87.999c-43.333 43.333 -70 72.666 -80 87.999v848
c51.333 56 78 84 80 84z" />
    <glyph glyph-name="eight" unicode="8" horiz-adv-x="1457" 
d="M165 2208h688c15.333 -10 44.666 -36.667 87.999 -80c-43.333 -43.333 -72.666 -70 -87.999 -80h-688c-15.333 10 -44.666 36.667 -87.999 80c43.333 43.333 72.666 70 87.999 80zM77 2048c43.333 -43.333 70 -72.666 80 -87.999v-688
c-10 -15.333 -36.667 -44.666 -80 -87.999c-43.333 43.333 -70 72.666 -80 87.999v688c10 15.333 36.667 44.666 80 87.999zM937 2048c43.333 -43.333 70 -72.666 80 -87.999v-688c-10 -15.333 -36.667 -44.666 -80 -87.999c-43.333 43.333 -70 72.666 -80 87.999v688
c10 15.333 36.667 44.666 80 87.999zM169 1184h688c15.333 -10 44.666 -36.667 87.999 -80c-43.333 -43.333 -72.666 -70 -87.999 -80h-688c-15.333 10 -44.666 36.667 -87.999 80c43.333 43.333 72.666 70 87.999 80zM77 1024c43.333 -43.333 70 -72.666 80 -87.999v-688
c-10 -15.333 -36.667 -44.666 -80 -87.999c-43.333 43.333 -70 72.666 -80 87.999v688c10 15.333 36.667 44.666 80 87.999zM937 1024c43.333 -43.333 70 -72.666 80 -87.999v-688c-10 -15.333 -36.667 -44.666 -80 -87.999c-43.333 43.333 -70 72.666 -80 87.999v688
c10 15.333 36.667 44.666 80 87.999zM169 160h688c15.333 -10 44.666 -36.667 87.999 -80c-43.333 -43.333 -72.666 -70 -87.999 -80h-688c-15.333 10 -44.666 36.667 -87.999 80c43.333 43.333 72.666 70 87.999 80z" />
    <glyph glyph-name="nine" unicode="9" horiz-adv-x="1450" 
d="M1 2208h848.001c2.66699 0 4 -1.33301 4 -4l8 4h152v-4c-98.667 -104 -153.334 -156 -164.001 -156h-692c-52 47.333 -104 99.333 -156 156v4zM-2.99902 2128l4 -0.000976562c55.333 -55.333 107.333 -110 156 -164v-696c-29.333 -33.333 -81.333 -86.666 -156 -159.999
h-4v1020zM1013 2128h4v-856c-10 -15.333 -36.667 -44.666 -80 -87.999c-43.333 43.333 -70 72.666 -80 87.999v692c48.667 54 100.667 108.667 156 164zM157.001 1184h688c15.333 -10 44.666 -36.667 87.999 -80c-43.333 -43.333 -72.666 -70 -87.999 -80h-844v4
c91.333 100 143.333 152 156 156zM937.001 1024c43.333 -43.333 70 -72.666 80 -87.999v-852h-4c-2.66699 0 -54.667 53.333 -156 160v692c10 15.333 36.667 44.666 80 87.999zM89.001 159.999h768c3.33301 0 55.333 -52 156 -156v-4h-924
c-15.333 10 -44.666 36.667 -87.999 80c43.333 43.333 72.666 70 87.999 80z" />
    <glyph glyph-name="colon" unicode=":" horiz-adv-x="557" 
 />
    <glyph glyph-name="semicolon" unicode=";" horiz-adv-x="557" 
 />
    <glyph glyph-name="semicolon" unicode="&#x37e;" horiz-adv-x="557" 
 />
    <glyph glyph-name="less" unicode="&#x3c;" 
 />
    <glyph glyph-name="equal" unicode="=" 
 />
    <glyph glyph-name="greater" unicode="&#x3e;" 
 />
    <glyph glyph-name="question" unicode="?" horiz-adv-x="748" 
 />
    <glyph glyph-name="at" unicode="@" horiz-adv-x="2019" 
 />
    <glyph glyph-name="A" unicode="A" horiz-adv-x="1380" 
d="M168 2208h688c15.333 -10 44.666 -36.667 87.999 -80c-43.333 -43.333 -72.666 -70 -87.999 -80h-688c-15.333 10 -44.666 36.667 -87.999 80c43.333 43.333 72.666 70 87.999 80zM80 2048c43.333 -43.333 70 -72.666 80 -87.999v-688
c-10 -15.333 -36.667 -44.666 -80 -87.999c-43.333 43.333 -70 72.666 -80 87.999v688c10 15.333 36.667 44.666 80 87.999zM940 2048c43.333 -43.333 70 -72.666 80 -87.999v-688c-10 -15.333 -36.667 -44.666 -80 -87.999c-43.333 43.333 -70 72.666 -80 87.999v688
c10 15.333 36.667 44.666 80 87.999zM172 1184h688c15.333 -10 44.666 -36.667 87.999 -80c-43.333 -43.333 -72.666 -70 -87.999 -80h-688c-15.333 10 -44.666 36.667 -87.999 80c43.333 43.333 72.666 70 87.999 80zM80 1024c43.333 -43.333 70 -72.666 80 -87.999v-848
c-10 -15.333 -36.667 -44.666 -80 -87.999c-43.333 43.333 -70 72.666 -80 87.999v848c10 15.333 36.667 44.666 80 87.999zM940 1024c2 0 28.667 -28 80 -84v-848c-10 -15.333 -36.667 -44.666 -80 -87.999c-43.333 43.333 -70 72.666 -80 87.999v848
c51.333 56 78 84 80 84z" />
    <glyph glyph-name="B" unicode="B" horiz-adv-x="1373" 
d="M4 2208h852c15.333 -10 44.666 -36.667 87.999 -80c-43.333 -43.333 -72.666 -70 -87.999 -80h-696c-3.33301 0 -55.333 52 -156 156v4zM0 2124h4c2.66699 0 54.667 -53.333 156 -160v-692c-10 -15.333 -36.667 -44.666 -80 -87.999
c-43.333 43.333 -70 72.666 -80 87.999v852zM940 2048c43.333 -43.333 70 -72.666 80 -87.999v-688c-10 -15.333 -36.667 -44.666 -80 -87.999c-43.333 43.333 -70 72.666 -80 87.999v688c10 15.333 36.667 44.666 80 87.999zM172 1184h688
c15.333 -10 44.666 -36.667 87.999 -80c-43.333 -43.333 -72.666 -70 -87.999 -80h-688c-15.333 10 -44.666 36.667 -87.999 80c43.333 43.333 72.666 70 87.999 80zM80 1024c43.333 -43.333 70 -72.666 80 -87.999v-692c-46 -51.333 -98 -106 -156 -164h-4v856
c10 15.333 36.667 44.666 80 87.999zM940 1024c2 0 28.667 -28 80 -84v-696c-51.333 -56 -78 -84 -80 -84s-28.667 28 -80 84v696c51.333 56 78 84 80 84zM856 160c15.333 -10 44.665 -36.667 87.998 -80c-43.333 -43.333 -72.666 -70 -87.999 -80h-688
c-2.66699 -0 -4 1.33301 -4 4l-8 -4h-152v4c98.667 104 153.334 156 164.001 156h688z" />
    <glyph glyph-name="C" unicode="C" horiz-adv-x="1380" 
d="M168 2208h688c15.333 -10 44.666 -36.667 87.999 -80c-43.333 -43.333 -72.666 -70 -87.999 -80h-688c-15.333 10 -44.666 36.667 -87.999 80c43.333 43.333 72.666 70 87.999 80zM80 2048c43.333 -43.333 70 -72.666 80 -87.999v-688
c-10 -15.333 -36.667 -44.666 -80 -87.999c-43.333 43.333 -70 72.666 -80 87.999v688c10 15.333 36.667 44.666 80 87.999zM80 1024c43.333 -43.333 70 -72.666 80 -87.999v-688c-10 -15.333 -36.667 -44.666 -80 -87.999c-43.333 43.333 -70 72.666 -80 87.999v688
c10 15.333 36.667 44.666 80 87.999zM172 160h688c15.333 -10 44.666 -36.667 87.999 -80c-43.333 -43.333 -72.666 -70 -87.999 -80h-688c-15.333 10 -44.666 36.667 -87.999 80c43.333 43.333 72.666 70 87.999 80z" />
    <glyph glyph-name="D" unicode="D" horiz-adv-x="1380" 
d="M4 2208h852c15.333 -10 44.666 -36.667 87.999 -80c-43.333 -43.333 -72.666 -70 -87.999 -80h-696c-3.33301 0 -55.333 52 -156 156v4zM0 2124h4c2.66699 0 54.667 -53.333 156 -160v-692c-10 -15.333 -36.667 -44.666 -80 -87.999
c-43.333 43.333 -70 72.666 -80 87.999v852zM940 2048c43.333 -43.333 70 -72.666 80 -87.999v-688c-10 -15.333 -36.667 -44.666 -80 -87.999c-43.333 43.333 -70 72.666 -80 87.999v688c10 15.333 36.667 44.666 80 87.999zM80 1024c43.333 -43.333 70 -72.666 80 -87.999
v-692c-46 -51.333 -98 -106 -156 -164h-4v856c10 15.333 36.667 44.666 80 87.999zM940 1024c2 0 28.667 -28 80 -84v-696c-51.333 -56 -78 -84 -80 -84s-28.667 28 -80 84v696c51.333 56 78 84 80 84zM856 160c15.333 -10 44.665 -36.667 87.998 -80
c-43.333 -43.333 -72.666 -70 -87.999 -80h-688c-2.66699 -0 -4 1.33301 -4 4l-8 -4h-152v4c98.667 104 153.334 156 164.001 156h688z" />
    <glyph glyph-name="E" unicode="E" horiz-adv-x="1380" 
d="M164 2208h688c15.333 -10 44.666 -36.667 87.999 -80c-43.333 -43.333 -72.666 -70 -87.999 -80h-688c-15.333 10 -44.666 36.667 -87.999 80c43.333 43.333 72.666 70 87.999 80zM80 2048c43.333 -43.333 70 -72.666 80 -87.999v-688
c-10 -15.333 -36.667 -44.666 -80 -87.999c-43.333 43.333 -70 72.666 -80 87.999v688c10 15.333 36.667 44.666 80 87.999zM160 1184h688c15.333 -10 44.666 -36.667 87.999 -80c-43.333 -43.333 -72.666 -70 -87.999 -80h-688c-15.333 10 -44.666 36.667 -87.999 80
c43.333 43.333 72.666 70 87.999 80zM80 1024c43.333 -43.333 70 -72.666 80 -87.999v-688c-10 -15.333 -36.667 -44.666 -80 -87.999c-43.333 43.333 -70 72.666 -80 87.999v688c10 15.333 36.667 44.666 80 87.999zM160 160h688c15.333 -10 44.666 -36.667 87.999 -80
c-43.333 -43.333 -72.666 -70 -87.999 -80h-688c-15.333 10 -44.666 36.667 -87.999 80c43.333 43.333 72.666 70 87.999 80z" />
    <glyph glyph-name="F" unicode="F" horiz-adv-x="1373" 
d="M168 2208h688c15.333 -10 44.666 -36.667 87.999 -80c-43.333 -43.333 -72.666 -70 -87.999 -80h-688c-15.333 10 -44.666 36.667 -87.999 80c43.333 43.333 72.666 70 87.999 80zM80 2048c43.333 -43.333 70 -72.666 80 -87.999v-688
c-10 -15.333 -36.667 -44.666 -80 -87.999c-43.333 43.333 -70 72.666 -80 87.999v688c10 15.333 36.667 44.666 80 87.999zM172 1184h688c15.333 -10 44.666 -36.667 87.999 -80c-43.333 -43.333 -72.666 -70 -87.999 -80h-688c-15.333 10 -44.666 36.667 -87.999 80
c43.333 43.333 72.666 70 87.999 80zM80 1024c43.333 -43.333 70 -72.666 80 -87.999v-848c-10 -15.333 -36.667 -44.666 -80 -87.999c-43.333 43.333 -70 72.666 -80 87.999v848c10 15.333 36.667 44.666 80 87.999z" />
    <glyph glyph-name="G" unicode="G" horiz-adv-x="1373" 
d="M168 2208h688c15.333 -10 44.666 -36.667 87.999 -80c-43.333 -43.333 -72.666 -70 -87.999 -80h-688c-15.333 10 -44.666 36.667 -87.999 80c43.333 43.333 72.666 70 87.999 80zM80 2048c43.333 -43.333 70 -72.666 80 -87.999v-688
c-10 -15.333 -36.667 -44.666 -80 -87.999c-43.333 43.333 -70 72.666 -80 87.999v688c10 15.333 36.667 44.666 80 87.999zM172 1184h688c15.333 -10 44.666 -36.667 87.999 -80c-43.333 -43.333 -72.666 -70 -87.999 -80h-688c-15.333 10 -44.666 36.667 -87.999 80
c43.333 43.333 72.666 70 87.999 80zM80 1024c43.333 -43.333 70 -72.666 80 -87.999v-688c-10 -15.333 -36.667 -44.666 -80 -87.999c-43.333 43.333 -70 72.666 -80 87.999v688c10 15.333 36.667 44.666 80 87.999zM940 1024c43.333 -43.333 70 -72.666 80 -87.999v-688
c-10 -15.333 -36.667 -44.666 -80 -87.999c-43.333 43.333 -70 72.666 -80 87.999v688c10 15.333 36.667 44.666 80 87.999zM172 160h688c15.333 -10 44.666 -36.667 87.999 -80c-43.333 -43.333 -72.666 -70 -87.999 -80h-688c-15.333 10 -44.666 36.667 -87.999 80
c43.333 43.333 72.666 70 87.999 80z" />
    <glyph glyph-name="H" unicode="H" horiz-adv-x="1386" 
d="M80 2208c43.333 -43.333 70 -72.666 80 -88v-848c-10 -15.333 -36.667 -44.666 -80 -87.999c-43.333 43.333 -70 72.666 -80 87.999v848c10 15.333 36.667 44.666 80 88zM940 2208c43.333 -43.333 70 -72.666 80 -88v-848c-10 -15.333 -36.667 -44.666 -80 -87.999
c-43.333 43.333 -70 72.666 -80 87.999v848c10 15.333 36.667 44.666 80 88zM172 1184h688c15.333 -10 44.666 -36.667 87.999 -80c-43.333 -43.333 -72.666 -70 -87.999 -80h-688c-15.333 10 -44.666 36.667 -87.999 80c43.333 43.333 72.666 70 87.999 80zM80 1024
c43.333 -43.333 70 -72.666 80 -87.999v-848c-10 -15.333 -36.667 -44.666 -80 -87.999c-43.333 43.333 -70 72.666 -80 87.999v848c10 15.333 36.667 44.666 80 87.999zM940 1024c2 0 28.667 -28 80 -84v-848c-10 -15.333 -36.667 -44.666 -80 -87.999
c-43.333 43.333 -70 72.666 -80 87.999v848c51.333 56 78 84 80 84z" />
    <glyph glyph-name="I" unicode="I" horiz-adv-x="501" 
d="M80 2204c43.333 -43.333 70 -72.666 80 -88v-848c-10 -15.333 -36.667 -44.666 -80 -87.999c-43.333 43.333 -70 72.666 -80 87.999v848c10 15.333 36.667 44.666 80 88zM80 1020c2 0 28.667 -28 80 -84v-848c-10 -15.333 -36.667 -44.666 -80 -87.999
c-43.333 43.333 -70 72.666 -80 87.999v848c51.333 56 78 84 80 84z" />
    <glyph glyph-name="J" unicode="J" horiz-adv-x="1386" 
d="M940 2208c53.333 -54 80.001 -83.333 80.001 -88v-848c-44.667 -51.333 -71.334 -79.333 -80.001 -84c-8 4.66699 -34.667 32.667 -80 84v848c0 4.66699 26.667 34 80 88zM80.001 1028c8.66699 -4.66699 35.333 -32.667 80 -84v-684c0 -12.667 -26.667 -44.667 -80 -96
c-53.333 51.333 -80 83.333 -80 96v684c45.333 51.333 72 79.333 80 84zM940 1028c53.333 -54 80 -83.333 80 -88v-692c-49.333 -56 -76 -84 -80 -84s-30.667 28 -80 84v692c0 4.66699 26.667 34 80 88zM172 160h687.998c18.667 -14 48 -40.667 88 -80
c-43.333 -43.333 -72.666 -70 -87.999 -80h-688c-15.333 10 -44.666 36.667 -87.999 80c40 39.333 69.333 66 88 80z" />
    <glyph glyph-name="K" unicode="K" horiz-adv-x="1382" 
d="M80 2212c43.333 -43.333 70 -72.666 80 -88v-856c-47.333 -52 -99.333 -104 -156 -156h-4v1012c10 15.333 36.667 44.666 80 88zM1012 2064l4 0.000976562v-92c0 -8.66699 1.33301 -15.334 4 -20.001l-4 -24v-84l-576 -576h-84l-28 -4c0 2.66699 -1.33301 4 -4 4l4 28v84
zM172 1184h688c15.333 -10 44.666 -36.667 87.999 -80c-43.333 -43.333 -72.666 -70 -87.999 -80h-688c-15.333 10 -44.666 36.667 -87.999 80c43.333 43.333 72.666 70 87.999 80zM0 1100h4c2.66699 0 54.667 -53.333 156 -160v-852
c-10 -15.333 -36.667 -44.666 -80 -87.999c-43.333 43.333 -70 72.666 -80 87.999v1012zM940 1024c2 0 28.667 -28 80 -84v-848c-10 -15.333 -36.667 -44.666 -80 -87.999c-43.333 43.333 -70 72.666 -80 87.999v848c51.333 56 78 84 80 84z" />
    <glyph glyph-name="L" unicode="L" horiz-adv-x="1373" 
d="M80 2208c53.333 -54 80.001 -83.333 80.001 -88v-848c-44.667 -51.333 -71.334 -79.333 -80.001 -84c-8 4.66699 -34.667 32.667 -80 84v848c0 4.66699 26.667 34 80 88zM80.001 1028c53.333 -54 80 -83.333 80 -88v-692c-49.333 -56 -76 -84 -80 -84s-30.667 28 -80 84
v692c0 4.66699 26.667 34 80 88zM160.001 160h771.998c18.667 -14 48 -40.667 88 -80c-43.333 -43.333 -72.666 -70 -87.999 -80h-772c-15.333 10 -44.666 36.667 -87.999 80c40 39.333 69.333 66 88 80z" />
    <glyph glyph-name="M" unicode="M" horiz-adv-x="1380" 
d="M172 2208h688c15.333 -10 44.666 -36.667 87.999 -80c-43.333 -43.333 -72.666 -70 -87.999 -80h-688c-15.333 10 -44.666 36.667 -87.999 80c43.333 43.333 72.666 70 87.999 80zM80 2048c43.333 -43.333 70 -72.666 80 -87.999v-688
c-10 -15.333 -36.667 -44.666 -80 -87.999c-43.333 43.333 -70 72.666 -80 87.999v688c10 15.333 36.667 44.666 80 87.999zM940 2048c2 0 28.667 -28 80 -84v-696c-51.333 -56 -78 -84 -80 -84s-28.667 28 -80 84v696c51.333 56 78 84 80 84zM512 1960
c3.33301 0 30 -26.667 80 -80v-448c0 -3.33301 -26.667 -30 -80 -80c-3.33301 0 -30 26.667 -80 80v448c0 3.33301 26.667 30 80 80zM80 1024c43.333 -43.333 70 -72.666 80 -87.999v-848c-10 -15.333 -36.667 -44.666 -80 -87.999c-43.333 43.333 -70 72.666 -80 87.999
v848c10 15.333 36.667 44.666 80 87.999zM940 1024c43.333 -43.333 70 -72.666 80 -87.999v-848c-10 -15.333 -36.667 -44.666 -80 -87.999c-43.333 43.333 -70 72.666 -80 87.999v848c10 15.333 36.667 44.666 80 87.999z" />
    <glyph glyph-name="N" unicode="N" horiz-adv-x="1373" 
d="M0 2204h4c104 -98.667 156 -153.334 156 -164v-688c-10 -15.333 -36.667 -44.666 -80 -87.999c-43.333 43.333 -70 72.666 -80 87.999v688c-0 2.66699 1.33301 4 4 4l-4 8v152zM1016 2204h4v-152c0 -2.66699 -1.33301 -4 -4 -4l4 -8v-768
c-10 -15.333 -36.667 -44.666 -80 -87.999c-43.333 43.333 -70 72.666 -80 87.999v756c0 22.667 25.333 54.667 76 96c0 3.33301 26.667 30 80 80zM216 2052c40.667 -5.33301 79.334 -8 116.001 -8l476 -512v-108l-4 -8c-40.667 5.33301 -79.334 8 -116.001 8l-476 512v108z
M80 1024c43.333 -43.333 70 -72.666 80 -87.999v-848c-10 -15.333 -36.667 -44.666 -80 -87.999c-43.333 43.333 -70 72.666 -80 87.999v848c10 15.333 36.667 44.666 80 87.999zM940 1024c43.333 -43.333 70 -72.666 80 -87.999v-848
c-10 -15.333 -36.667 -44.666 -80 -87.999c-43.333 43.333 -70 72.666 -80 87.999v848c10 15.333 36.667 44.666 80 87.999z" />
    <glyph glyph-name="O" unicode="O" horiz-adv-x="1373" 
d="M168 2208h688c15.333 -10 44.666 -36.667 87.999 -80c-43.333 -43.333 -72.666 -70 -87.999 -80h-688c-15.333 10 -44.666 36.667 -87.999 80c43.333 43.333 72.666 70 87.999 80zM80 2048c43.333 -43.333 70 -72.666 80 -87.999v-688
c-10 -15.333 -36.667 -44.666 -80 -87.999c-43.333 43.333 -70 72.666 -80 87.999v688c10 15.333 36.667 44.666 80 87.999zM940 2048c43.333 -43.333 70 -72.666 80 -87.999v-688c-10 -15.333 -36.667 -44.666 -80 -87.999c-43.333 43.333 -70 72.666 -80 87.999v688
c10 15.333 36.667 44.666 80 87.999zM80 1024c43.333 -43.333 70 -72.666 80 -87.999v-688c-10 -15.333 -36.667 -44.666 -80 -87.999c-43.333 43.333 -70 72.666 -80 87.999v688c10 15.333 36.667 44.666 80 87.999zM940 1024c43.333 -43.333 70 -72.666 80 -87.999v-688
c-10 -15.333 -36.667 -44.666 -80 -87.999c-43.333 43.333 -70 72.666 -80 87.999v688c10 15.333 36.667 44.666 80 87.999zM172 160h688c15.333 -10 44.666 -36.667 87.999 -80c-43.333 -43.333 -72.666 -70 -87.999 -80h-688c-15.333 10 -44.666 36.667 -87.999 80
c43.333 43.333 72.666 70 87.999 80z" />
    <glyph glyph-name="P" unicode="P" horiz-adv-x="1380" 
d="M168 2208h688c15.333 -10 44.666 -36.667 87.999 -80c-43.333 -43.333 -72.666 -70 -87.999 -80h-688c-15.333 10 -44.666 36.667 -87.999 80c43.333 43.333 72.666 70 87.999 80zM80 2048c43.333 -43.333 70 -72.666 80 -87.999v-688
c-10 -15.333 -36.667 -44.666 -80 -87.999c-43.333 43.333 -70 72.666 -80 87.999v688c10 15.333 36.667 44.666 80 87.999zM940 2048c43.333 -43.333 70 -72.666 80 -87.999v-688c-10 -15.333 -36.667 -44.666 -80 -87.999c-43.333 43.333 -70 72.666 -80 87.999v688
c10 15.333 36.667 44.666 80 87.999zM172 1184h688c15.333 -10 44.666 -36.667 87.999 -80c-43.333 -43.333 -72.666 -70 -87.999 -80h-688c-15.333 10 -44.666 36.667 -87.999 80c43.333 43.333 72.666 70 87.999 80zM80 1024c43.333 -43.333 70 -72.666 80 -87.999v-848
c-10 -15.333 -36.667 -44.666 -80 -87.999c-43.333 43.333 -70 72.666 -80 87.999v848c10 15.333 36.667 44.666 80 87.999z" />
    <glyph glyph-name="Q" unicode="Q" horiz-adv-x="1386" 
d="M168 2206h688c15.333 -10 44.666 -36.667 87.999 -80c-43.333 -43.333 -72.666 -70 -87.999 -80h-688c-15.333 10 -44.666 36.667 -87.999 80c43.333 43.333 72.666 70 87.999 80zM80 2046c43.333 -43.333 70 -72.666 80 -87.999v-688
c-10 -15.333 -36.667 -44.666 -80 -87.999c-43.333 43.333 -70 72.666 -80 87.999v688c10 15.333 36.667 44.666 80 87.999zM940 2046c43.333 -43.333 70 -72.666 80 -87.999v-688c-10 -15.333 -36.667 -44.666 -80 -87.999c-43.333 43.333 -70 72.666 -80 87.999v688
c10 15.333 36.667 44.666 80 87.999zM80 1022c43.333 -43.333 70 -72.666 80 -87.999v-688c-10 -15.333 -36.667 -44.666 -80 -87.999c-43.333 43.333 -70 72.666 -80 87.999v688c10 15.333 36.667 44.666 80 87.999zM940 1022c43.333 -43.333 70 -72.666 80 -87.999v-688
c-10 -15.333 -36.667 -44.666 -80 -87.999c-43.333 43.333 -70 72.666 -80 87.999v688c10 15.333 36.667 44.666 80 87.999zM172 158h688c15.333 -10 44.666 -36.667 87.999 -80c-43.333 -43.333 -72.666 -70 -87.999 -80h-688c-15.333 10 -44.666 36.667 -87.999 80
c43.333 43.333 72.666 70 87.999 80zM512 -50c53.333 -48.667 80 -74 80 -76v-248c0 -2 -26.667 -27.333 -80 -76c-53.333 48.667 -80 74 -80 76v248c0 2 26.667 27.333 80 76z" />
    <glyph glyph-name="R" unicode="R" horiz-adv-x="1386" 
d="M168 2208h688c15.333 -10 44.666 -36.667 87.999 -80c-43.333 -43.333 -72.666 -70 -87.999 -80h-688c-15.333 10 -44.666 36.667 -87.999 80c43.333 43.333 72.666 70 87.999 80zM80 2048c43.333 -43.333 70 -72.666 80 -87.999v-688
c-10 -15.333 -36.667 -44.666 -80 -87.999c-43.333 43.333 -70 72.666 -80 87.999v688c10 15.333 36.667 44.666 80 87.999zM940 2048c43.333 -43.333 70 -72.666 80 -87.999v-688c-10 -15.333 -36.667 -44.666 -80 -87.999c-43.333 43.333 -70 72.666 -80 87.999v688
c10 15.333 36.667 44.666 80 87.999zM172 1184h688c15.333 -10 44.666 -36.667 87.999 -80c-43.333 -43.333 -72.666 -70 -87.999 -80h-688c-15.333 10 -44.666 36.667 -87.999 80c43.333 43.333 72.666 70 87.999 80zM80 1024c43.333 -43.333 70 -72.666 80 -87.999v-848
c-10 -15.333 -36.667 -44.666 -80 -87.999c-43.333 43.333 -70 72.666 -80 87.999v848c10 15.333 36.667 44.666 80 87.999zM228 948c90.667 -7.33301 136 -18 136 -32l652 -756v-68c0 -22.667 -2.66699 -40 -8 -52c-85.333 3.33301 -128 14 -128 32l-660 752
c2.66699 44 4 77.333 4 100v16z" />
    <glyph glyph-name="S" unicode="S" horiz-adv-x="1373" 
d="M168 2208h688c15.333 -10 44.666 -36.667 87.999 -80c-43.333 -43.333 -72.666 -70 -87.999 -80h-688c-15.333 10 -44.666 36.667 -87.999 80c43.333 43.333 72.666 70 87.999 80zM80 2048c43.333 -43.333 70 -72.666 80 -87.999v-688
c-10 -15.333 -36.667 -44.666 -80 -87.999c-43.333 43.333 -70 72.666 -80 87.999v688c10 15.333 36.667 44.666 80 87.999zM172 1184h688c15.333 -10 44.666 -36.667 87.999 -80c-43.333 -43.333 -72.666 -70 -87.999 -80h-688c-15.333 10 -44.666 36.667 -87.999 80
c43.333 43.333 72.666 70 87.999 80zM940 1024c43.333 -43.333 70 -72.666 80 -87.999v-688c-10 -15.333 -36.667 -44.666 -80 -87.999c-43.333 43.333 -70 72.666 -80 87.999v688c10 15.333 36.667 44.666 80 87.999zM172 160h688c15.333 -10 44.666 -36.667 87.999 -80
c-43.333 -43.333 -72.666 -70 -87.999 -80h-688c-15.333 10 -44.666 36.667 -87.999 80c43.333 43.333 72.666 70 87.999 80z" />
    <glyph glyph-name="T" unicode="T" horiz-adv-x="1373" 
d="M0 2208h1012v-4c0 -3.33301 -52 -55.333 -156 -156h-700c-3.33301 0 -55.333 52 -156 156v4zM496 2024c43.333 -43.333 70 -72.666 80 -87.999v-824c-10 -15.333 -36.667 -44.666 -80 -87.999c-43.333 43.333 -70 72.666 -80 87.999v824
c10 15.333 36.667 44.666 80 87.999zM496 948c43.333 -43.333 70 -72.666 80 -87.999v-772c-10 -15.333 -36.667 -44.666 -80 -87.999c-43.333 43.333 -70 72.666 -80 87.999v772c10 15.333 36.667 44.666 80 87.999z" />
    <glyph glyph-name="U" unicode="U" horiz-adv-x="1380" 
d="M80 2208c43.333 -43.333 70 -72.666 80 -88v-848c-10 -15.333 -36.667 -44.666 -80 -87.999c-43.333 43.333 -70 72.666 -80 87.999v848c10 15.333 36.667 44.666 80 88zM940 2208c43.333 -43.333 70 -72.666 80 -88v-848c-10 -15.333 -36.667 -44.666 -80 -87.999
c-43.333 43.333 -70 72.666 -80 87.999v848c10 15.333 36.667 44.666 80 88zM80 1024c43.333 -43.333 70 -72.666 80 -87.999v-688c-10 -15.333 -36.667 -44.666 -80 -87.999c-43.333 43.333 -70 72.666 -80 87.999v688c10 15.333 36.667 44.666 80 87.999zM940 1024
c2 0 28.667 -28 80 -84v-696c-51.333 -56 -78 -84 -80 -84s-28.667 28 -80 84v696c51.333 56 78 84 80 84zM172 160h688c15.333 -10 44.666 -36.667 87.999 -80c-43.333 -43.333 -72.666 -70 -87.999 -80h-688c-15.333 10 -44.666 36.667 -87.999 80
c43.333 43.333 72.666 70 87.999 80z" />
    <glyph glyph-name="V" unicode="V" horiz-adv-x="1373" 
d="M80 2208c43.333 -43.333 70 -72.666 80 -88v-848c-10 -15.333 -36.667 -44.666 -80 -87.999c-43.333 43.333 -70 72.666 -80 87.999v848c10 15.333 36.667 44.666 80 88zM940 2208c43.333 -43.333 70 -72.666 80 -88v-848c-10 -15.333 -36.667 -44.666 -80 -87.999
c-43.333 43.333 -70 72.666 -80 87.999v848c10 15.333 36.667 44.666 80 88zM80 1024c43.333 -43.333 70 -72.666 80 -87.999v-776c0 -3.33301 -52 -55.333 -156 -156h-4v932c10 15.333 36.667 44.666 80 87.999zM940 1024c3.33301 0 30 -26.667 80 -80v-196
c0 -3.33301 -26.667 -30 -80 -80c-3.33301 0 -30 26.667 -80 80v196c0 3.33301 26.667 30 80 80zM904 588h23.999c48 0 78.667 -2.66699 92 -8c0 -83.333 -14.667 -131.333 -44 -144c-289.333 -262.667 -450.666 -408 -483.999 -436h-232v4l548 500
c17.333 13.333 49.333 41.333 96 84z" />
    <glyph glyph-name="W" unicode="W" horiz-adv-x="1386" 
d="M80 2208c43.333 -43.333 70 -72.666 80 -88v-848c-10 -15.333 -36.667 -44.666 -80 -87.999c-43.333 43.333 -70 72.666 -80 87.999v848c10 15.333 36.667 44.666 80 88zM940 2208c43.333 -43.333 70 -72.666 80 -88v-848c-10 -15.333 -36.667 -44.666 -80 -87.999
c-43.333 43.333 -70 72.666 -80 87.999v848c10 15.333 36.667 44.666 80 88zM80 1024c43.333 -43.333 70 -72.666 80 -87.999v-688c-10 -15.333 -36.667 -44.666 -80 -87.999c-43.333 43.333 -70 72.666 -80 87.999v688c10 15.333 36.667 44.666 80 87.999zM940 1024
c2 0 28.667 -28 80 -84v-696c-51.333 -56 -78 -84 -80 -84s-28.667 28 -80 84v696c51.333 56 78 84 80 84zM512 856c3.33301 0 30 -26.667 80 -80v-448c0 -3.33301 -26.667 -30 -80 -80c-3.33301 0 -30 26.667 -80 80v448c0 3.33301 26.667 30 80 80zM172 160h688
c15.333 -10 44.666 -36.667 87.999 -80c-43.333 -43.333 -72.666 -70 -87.999 -80h-688c-15.333 10 -44.666 36.667 -87.999 80c43.333 43.333 72.666 70 87.999 80z" />
    <glyph glyph-name="X" unicode="X" horiz-adv-x="1380" 
d="M40 2212c77.333 -29.333 116 -52 116 -68l348 -752c-21.333 -72 -34.666 -108 -39.999 -108c-77.333 29.333 -116 52 -116 68l-348 752c21.333 72 34.666 108 39.999 108zM984 2208c24 -67.333 36 -104.666 36 -111.999l-360 -772l-108 -44
c-24 67.333 -36 104.666 -36 111.999l360 772zM168 1188h688c15.333 -10 44.666 -36.667 87.999 -80c-43.333 -43.333 -72.666 -70 -87.999 -80h-688c-15.333 10 -44.666 36.667 -87.999 80c43.333 43.333 72.666 70 87.999 80zM560 932c77.333 -29.333 116 -52 116 -68
l348 -752c-21.333 -72 -34.666 -108 -39.999 -108c-77.333 29.333 -116 52 -116 68l-348 752c21.333 72 34.666 108 39.999 108zM472 928c24 -67.333 36 -104.666 36 -111.999l-360 -772l-108 -44c-24 67.333 -36 104.666 -36 111.999l360 772z" />
    <glyph glyph-name="Y" unicode="Y" horiz-adv-x="1373" 
d="M80 2208c43.333 -43.333 70 -72.666 80 -88v-848c-10 -15.333 -36.667 -44.666 -80 -87.999c-43.333 43.333 -70 72.666 -80 87.999v848c10 15.333 36.667 44.666 80 88zM940 2208c43.333 -43.333 70 -72.666 80 -88v-848c-10 -15.333 -36.667 -44.666 -80 -87.999
c-43.333 43.333 -70 72.666 -80 87.999v848c10 15.333 36.667 44.666 80 88zM168 1184h688c15.333 -10 44.666 -36.667 87.999 -80c-43.333 -43.333 -72.666 -70 -87.999 -80h-688c-15.333 10 -44.666 36.667 -87.999 80c43.333 43.333 72.666 70 87.999 80zM940 1024
c2 0 28.667 -28 80 -84v-696c-51.333 -56 -78 -84 -80 -84s-28.667 28 -80 84v696c51.333 56 78 84 80 84zM172 160h688c15.333 -10 44.666 -36.667 87.999 -80c-43.333 -43.333 -72.666 -70 -87.999 -80h-688c-15.333 10 -44.666 36.667 -87.999 80
c43.333 43.333 72.666 70 87.999 80z" />
    <glyph glyph-name="Z" unicode="Z" horiz-adv-x="1386" 
d="M0 2208h1012v-4c-62 -67.333 -114 -119.333 -156 -156h-700c-3.33301 0 -55.333 52 -156 156v4zM980 1960c4.66699 -6 15.334 -43.333 32.001 -112c-217.333 -396 -332 -601.333 -344 -616c-5.33301 0 -40 -10.667 -104 -32c-4.66699 6 -15.334 43.333 -32.001 112
c217.333 396 332 601.333 344 616c5.33301 0 40 10.667 104 32zM476 1004c4.66699 -6 15.334 -43.333 32.001 -112c-217.333 -396 -332 -601.333 -344 -616c-5.33301 0 -40 -10.667 -104 -32c-4.66699 6 -15.334 43.333 -32.001 112c217.333 396 332 601.333 344 616
c5.33301 0 40 10.667 104 32zM856 160c52 -47.333 103.999 -99.333 155.999 -156v-4h-848c-2.66699 -0 -4 1.33301 -4 4l-8 -4h-152v4c98.667 104 153.334 156 164.001 156h692z" />
    <glyph glyph-name="bracketleft" unicode="[" horiz-adv-x="758" 
 />
    <glyph glyph-name="backslash" unicode="\" horiz-adv-x="569" 
 />
    <glyph glyph-name="bracketright" unicode="]" horiz-adv-x="758" 
 />
    <glyph glyph-name="asciicircum" unicode="^" 
 />
    <glyph glyph-name="underscore" unicode="_" horiz-adv-x="1024" 
 />
    <glyph glyph-name="grave" unicode="`" horiz-adv-x="1024" 
 />
    <glyph glyph-name="a" unicode="a" horiz-adv-x="1380" 
d="M168 2208h688c15.333 -10 44.666 -36.667 87.999 -80c-43.333 -43.333 -72.666 -70 -87.999 -80h-688c-15.333 10 -44.666 36.667 -87.999 80c43.333 43.333 72.666 70 87.999 80zM80 2048c43.333 -43.333 70 -72.666 80 -87.999v-688
c-10 -15.333 -36.667 -44.666 -80 -87.999c-43.333 43.333 -70 72.666 -80 87.999v688c10 15.333 36.667 44.666 80 87.999zM940 2048c43.333 -43.333 70 -72.666 80 -87.999v-688c-10 -15.333 -36.667 -44.666 -80 -87.999c-43.333 43.333 -70 72.666 -80 87.999v688
c10 15.333 36.667 44.666 80 87.999zM172 1184h688c15.333 -10 44.666 -36.667 87.999 -80c-43.333 -43.333 -72.666 -70 -87.999 -80h-688c-15.333 10 -44.666 36.667 -87.999 80c43.333 43.333 72.666 70 87.999 80zM80 1024c43.333 -43.333 70 -72.666 80 -87.999v-848
c-10 -15.333 -36.667 -44.666 -80 -87.999c-43.333 43.333 -70 72.666 -80 87.999v848c10 15.333 36.667 44.666 80 87.999zM940 1024c2 0 28.667 -28 80 -84v-848c-10 -15.333 -36.667 -44.666 -80 -87.999c-43.333 43.333 -70 72.666 -80 87.999v848
c51.333 56 78 84 80 84z" />
    <glyph glyph-name="b" unicode="b" horiz-adv-x="1373" 
d="M4 2208h852c15.333 -10 44.666 -36.667 87.999 -80c-43.333 -43.333 -72.666 -70 -87.999 -80h-696c-3.33301 0 -55.333 52 -156 156v4zM0 2124h4c2.66699 0 54.667 -53.333 156 -160v-692c-10 -15.333 -36.667 -44.666 -80 -87.999
c-43.333 43.333 -70 72.666 -80 87.999v852zM940 2048c43.333 -43.333 70 -72.666 80 -87.999v-688c-10 -15.333 -36.667 -44.666 -80 -87.999c-43.333 43.333 -70 72.666 -80 87.999v688c10 15.333 36.667 44.666 80 87.999zM172 1184h688
c15.333 -10 44.666 -36.667 87.999 -80c-43.333 -43.333 -72.666 -70 -87.999 -80h-688c-15.333 10 -44.666 36.667 -87.999 80c43.333 43.333 72.666 70 87.999 80zM80 1024c43.333 -43.333 70 -72.666 80 -87.999v-692c-46 -51.333 -98 -106 -156 -164h-4v856
c10 15.333 36.667 44.666 80 87.999zM940 1024c2 0 28.667 -28 80 -84v-696c-51.333 -56 -78 -84 -80 -84s-28.667 28 -80 84v696c51.333 56 78 84 80 84zM856 160c15.333 -10 44.665 -36.667 87.998 -80c-43.333 -43.333 -72.666 -70 -87.999 -80h-688
c-2.66699 -0 -4 1.33301 -4 4l-8 -4h-152v4c98.667 104 153.334 156 164.001 156h688z" />
    <glyph glyph-name="c" unicode="c" horiz-adv-x="1380" 
d="M168 2208h688c15.333 -10 44.666 -36.667 87.999 -80c-43.333 -43.333 -72.666 -70 -87.999 -80h-688c-15.333 10 -44.666 36.667 -87.999 80c43.333 43.333 72.666 70 87.999 80zM80 2048c43.333 -43.333 70 -72.666 80 -87.999v-688
c-10 -15.333 -36.667 -44.666 -80 -87.999c-43.333 43.333 -70 72.666 -80 87.999v688c10 15.333 36.667 44.666 80 87.999zM80 1024c43.333 -43.333 70 -72.666 80 -87.999v-688c-10 -15.333 -36.667 -44.666 -80 -87.999c-43.333 43.333 -70 72.666 -80 87.999v688
c10 15.333 36.667 44.666 80 87.999zM172 160h688c15.333 -10 44.666 -36.667 87.999 -80c-43.333 -43.333 -72.666 -70 -87.999 -80h-688c-15.333 10 -44.666 36.667 -87.999 80c43.333 43.333 72.666 70 87.999 80z" />
    <glyph glyph-name="d" unicode="d" horiz-adv-x="1380" 
d="M4 2208h852c15.333 -10 44.666 -36.667 87.999 -80c-43.333 -43.333 -72.666 -70 -87.999 -80h-696c-3.33301 0 -55.333 52 -156 156v4zM0 2124h4c2.66699 0 54.667 -53.333 156 -160v-692c-10 -15.333 -36.667 -44.666 -80 -87.999
c-43.333 43.333 -70 72.666 -80 87.999v852zM940 2048c43.333 -43.333 70 -72.666 80 -87.999v-688c-10 -15.333 -36.667 -44.666 -80 -87.999c-43.333 43.333 -70 72.666 -80 87.999v688c10 15.333 36.667 44.666 80 87.999zM80 1024c43.333 -43.333 70 -72.666 80 -87.999
v-692c-46 -51.333 -98 -106 -156 -164h-4v856c10 15.333 36.667 44.666 80 87.999zM940 1024c2 0 28.667 -28 80 -84v-696c-51.333 -56 -78 -84 -80 -84s-28.667 28 -80 84v696c51.333 56 78 84 80 84zM856 160c15.333 -10 44.665 -36.667 87.998 -80
c-43.333 -43.333 -72.666 -70 -87.999 -80h-688c-2.66699 -0 -4 1.33301 -4 4l-8 -4h-152v4c98.667 104 153.334 156 164.001 156h688z" />
    <glyph glyph-name="e" unicode="e" horiz-adv-x="1380" 
d="M164 2208h688c15.333 -10 44.666 -36.667 87.999 -80c-43.333 -43.333 -72.666 -70 -87.999 -80h-688c-15.333 10 -44.666 36.667 -87.999 80c43.333 43.333 72.666 70 87.999 80zM80 2048c43.333 -43.333 70 -72.666 80 -87.999v-688
c-10 -15.333 -36.667 -44.666 -80 -87.999c-43.333 43.333 -70 72.666 -80 87.999v688c10 15.333 36.667 44.666 80 87.999zM160 1184h688c15.333 -10 44.666 -36.667 87.999 -80c-43.333 -43.333 -72.666 -70 -87.999 -80h-688c-15.333 10 -44.666 36.667 -87.999 80
c43.333 43.333 72.666 70 87.999 80zM80 1024c43.333 -43.333 70 -72.666 80 -87.999v-688c-10 -15.333 -36.667 -44.666 -80 -87.999c-43.333 43.333 -70 72.666 -80 87.999v688c10 15.333 36.667 44.666 80 87.999zM160 160h688c15.333 -10 44.666 -36.667 87.999 -80
c-43.333 -43.333 -72.666 -70 -87.999 -80h-688c-15.333 10 -44.666 36.667 -87.999 80c43.333 43.333 72.666 70 87.999 80z" />
    <glyph glyph-name="f" unicode="f" horiz-adv-x="1373" 
d="M168 2208h688c15.333 -10 44.666 -36.667 87.999 -80c-43.333 -43.333 -72.666 -70 -87.999 -80h-688c-15.333 10 -44.666 36.667 -87.999 80c43.333 43.333 72.666 70 87.999 80zM80 2048c43.333 -43.333 70 -72.666 80 -87.999v-688
c-10 -15.333 -36.667 -44.666 -80 -87.999c-43.333 43.333 -70 72.666 -80 87.999v688c10 15.333 36.667 44.666 80 87.999zM172 1184h688c15.333 -10 44.666 -36.667 87.999 -80c-43.333 -43.333 -72.666 -70 -87.999 -80h-688c-15.333 10 -44.666 36.667 -87.999 80
c43.333 43.333 72.666 70 87.999 80zM80 1024c43.333 -43.333 70 -72.666 80 -87.999v-848c-10 -15.333 -36.667 -44.666 -80 -87.999c-43.333 43.333 -70 72.666 -80 87.999v848c10 15.333 36.667 44.666 80 87.999z" />
    <glyph glyph-name="g" unicode="g" horiz-adv-x="1373" 
d="M168 2208h688c15.333 -10 44.666 -36.667 87.999 -80c-43.333 -43.333 -72.666 -70 -87.999 -80h-688c-15.333 10 -44.666 36.667 -87.999 80c43.333 43.333 72.666 70 87.999 80zM80 2048c43.333 -43.333 70 -72.666 80 -87.999v-688
c-10 -15.333 -36.667 -44.666 -80 -87.999c-43.333 43.333 -70 72.666 -80 87.999v688c10 15.333 36.667 44.666 80 87.999zM172 1184h688c15.333 -10 44.666 -36.667 87.999 -80c-43.333 -43.333 -72.666 -70 -87.999 -80h-688c-15.333 10 -44.666 36.667 -87.999 80
c43.333 43.333 72.666 70 87.999 80zM80 1024c43.333 -43.333 70 -72.666 80 -87.999v-688c-10 -15.333 -36.667 -44.666 -80 -87.999c-43.333 43.333 -70 72.666 -80 87.999v688c10 15.333 36.667 44.666 80 87.999zM940 1024c43.333 -43.333 70 -72.666 80 -87.999v-688
c-10 -15.333 -36.667 -44.666 -80 -87.999c-43.333 43.333 -70 72.666 -80 87.999v688c10 15.333 36.667 44.666 80 87.999zM172 160h688c15.333 -10 44.666 -36.667 87.999 -80c-43.333 -43.333 -72.666 -70 -87.999 -80h-688c-15.333 10 -44.666 36.667 -87.999 80
c43.333 43.333 72.666 70 87.999 80z" />
    <glyph glyph-name="h" unicode="h" horiz-adv-x="1386" 
d="M80 2208c43.333 -43.333 70 -72.666 80 -88v-848c-10 -15.333 -36.667 -44.666 -80 -87.999c-43.333 43.333 -70 72.666 -80 87.999v848c10 15.333 36.667 44.666 80 88zM940 2208c43.333 -43.333 70 -72.666 80 -88v-848c-10 -15.333 -36.667 -44.666 -80 -87.999
c-43.333 43.333 -70 72.666 -80 87.999v848c10 15.333 36.667 44.666 80 88zM172 1184h688c15.333 -10 44.666 -36.667 87.999 -80c-43.333 -43.333 -72.666 -70 -87.999 -80h-688c-15.333 10 -44.666 36.667 -87.999 80c43.333 43.333 72.666 70 87.999 80zM80 1024
c43.333 -43.333 70 -72.666 80 -87.999v-848c-10 -15.333 -36.667 -44.666 -80 -87.999c-43.333 43.333 -70 72.666 -80 87.999v848c10 15.333 36.667 44.666 80 87.999zM940 1024c2 0 28.667 -28 80 -84v-848c-10 -15.333 -36.667 -44.666 -80 -87.999
c-43.333 43.333 -70 72.666 -80 87.999v848c51.333 56 78 84 80 84z" />
    <glyph glyph-name="i" unicode="i" horiz-adv-x="501" 
d="M80 2204c43.333 -43.333 70 -72.666 80 -88v-848c-10 -15.333 -36.667 -44.666 -80 -87.999c-43.333 43.333 -70 72.666 -80 87.999v848c10 15.333 36.667 44.666 80 88zM80 1020c2 0 28.667 -28 80 -84v-848c-10 -15.333 -36.667 -44.666 -80 -87.999
c-43.333 43.333 -70 72.666 -80 87.999v848c51.333 56 78 84 80 84z" />
    <glyph glyph-name="j" unicode="j" horiz-adv-x="1386" 
d="M940 2208c53.333 -54 80.001 -83.333 80.001 -88v-848c-44.667 -51.333 -71.334 -79.333 -80.001 -84c-8 4.66699 -34.667 32.667 -80 84v848c0 4.66699 26.667 34 80 88zM80.001 1028c8.66699 -4.66699 35.333 -32.667 80 -84v-684c0 -12.667 -26.667 -44.667 -80 -96
c-53.333 51.333 -80 83.333 -80 96v684c45.333 51.333 72 79.333 80 84zM940 1028c53.333 -54 80 -83.333 80 -88v-692c-49.333 -56 -76 -84 -80 -84s-30.667 28 -80 84v692c0 4.66699 26.667 34 80 88zM172 160h687.998c18.667 -14 48 -40.667 88 -80
c-43.333 -43.333 -72.666 -70 -87.999 -80h-688c-15.333 10 -44.666 36.667 -87.999 80c40 39.333 69.333 66 88 80z" />
    <glyph glyph-name="k" unicode="k" horiz-adv-x="1382" 
d="M80 2212c43.333 -43.333 70 -72.666 80 -88v-856c-47.333 -52 -99.333 -104 -156 -156h-4v1012c10 15.333 36.667 44.666 80 88zM1012 2064l4 0.000976562v-92c0 -8.66699 1.33301 -15.334 4 -20.001l-4 -24v-84l-576 -576h-84l-28 -4c0 2.66699 -1.33301 4 -4 4l4 28v84
zM172 1184h688c15.333 -10 44.666 -36.667 87.999 -80c-43.333 -43.333 -72.666 -70 -87.999 -80h-688c-15.333 10 -44.666 36.667 -87.999 80c43.333 43.333 72.666 70 87.999 80zM0 1100h4c2.66699 0 54.667 -53.333 156 -160v-852
c-10 -15.333 -36.667 -44.666 -80 -87.999c-43.333 43.333 -70 72.666 -80 87.999v1012zM940 1024c2 0 28.667 -28 80 -84v-848c-10 -15.333 -36.667 -44.666 -80 -87.999c-43.333 43.333 -70 72.666 -80 87.999v848c51.333 56 78 84 80 84z" />
    <glyph glyph-name="l" unicode="l" horiz-adv-x="1373" 
d="M80 2208c53.333 -54 80.001 -83.333 80.001 -88v-848c-44.667 -51.333 -71.334 -79.333 -80.001 -84c-8 4.66699 -34.667 32.667 -80 84v848c0 4.66699 26.667 34 80 88zM80.001 1028c53.333 -54 80 -83.333 80 -88v-692c-49.333 -56 -76 -84 -80 -84s-30.667 28 -80 84
v692c0 4.66699 26.667 34 80 88zM160.001 160h771.998c18.667 -14 48 -40.667 88 -80c-43.333 -43.333 -72.666 -70 -87.999 -80h-772c-15.333 10 -44.666 36.667 -87.999 80c40 39.333 69.333 66 88 80z" />
    <glyph glyph-name="m" unicode="m" horiz-adv-x="1380" 
d="M172 2208h688c15.333 -10 44.666 -36.667 87.999 -80c-43.333 -43.333 -72.666 -70 -87.999 -80h-688c-15.333 10 -44.666 36.667 -87.999 80c43.333 43.333 72.666 70 87.999 80zM80 2048c43.333 -43.333 70 -72.666 80 -87.999v-688
c-10 -15.333 -36.667 -44.666 -80 -87.999c-43.333 43.333 -70 72.666 -80 87.999v688c10 15.333 36.667 44.666 80 87.999zM940 2048c2 0 28.667 -28 80 -84v-696c-51.333 -56 -78 -84 -80 -84s-28.667 28 -80 84v696c51.333 56 78 84 80 84zM512 1960
c3.33301 0 30 -26.667 80 -80v-448c0 -3.33301 -26.667 -30 -80 -80c-3.33301 0 -30 26.667 -80 80v448c0 3.33301 26.667 30 80 80zM80 1024c43.333 -43.333 70 -72.666 80 -87.999v-848c-10 -15.333 -36.667 -44.666 -80 -87.999c-43.333 43.333 -70 72.666 -80 87.999
v848c10 15.333 36.667 44.666 80 87.999zM940 1024c43.333 -43.333 70 -72.666 80 -87.999v-848c-10 -15.333 -36.667 -44.666 -80 -87.999c-43.333 43.333 -70 72.666 -80 87.999v848c10 15.333 36.667 44.666 80 87.999z" />
    <glyph glyph-name="n" unicode="n" horiz-adv-x="1373" 
d="M0 2204h4c104 -98.667 156 -153.334 156 -164v-688c-10 -15.333 -36.667 -44.666 -80 -87.999c-43.333 43.333 -70 72.666 -80 87.999v688c-0 2.66699 1.33301 4 4 4l-4 8v152zM1016 2204h4v-152c0 -2.66699 -1.33301 -4 -4 -4l4 -8v-768
c-10 -15.333 -36.667 -44.666 -80 -87.999c-43.333 43.333 -70 72.666 -80 87.999v756c0 22.667 25.333 54.667 76 96c0 3.33301 26.667 30 80 80zM216 2052c40.667 -5.33301 79.334 -8 116.001 -8l476 -512v-108l-4 -8c-40.667 5.33301 -79.334 8 -116.001 8l-476 512v108z
M80 1024c43.333 -43.333 70 -72.666 80 -87.999v-848c-10 -15.333 -36.667 -44.666 -80 -87.999c-43.333 43.333 -70 72.666 -80 87.999v848c10 15.333 36.667 44.666 80 87.999zM940 1024c43.333 -43.333 70 -72.666 80 -87.999v-848
c-10 -15.333 -36.667 -44.666 -80 -87.999c-43.333 43.333 -70 72.666 -80 87.999v848c10 15.333 36.667 44.666 80 87.999z" />
    <glyph glyph-name="o" unicode="o" horiz-adv-x="1373" 
d="M168 2208h688c15.333 -10 44.666 -36.667 87.999 -80c-43.333 -43.333 -72.666 -70 -87.999 -80h-688c-15.333 10 -44.666 36.667 -87.999 80c43.333 43.333 72.666 70 87.999 80zM80 2048c43.333 -43.333 70 -72.666 80 -87.999v-688
c-10 -15.333 -36.667 -44.666 -80 -87.999c-43.333 43.333 -70 72.666 -80 87.999v688c10 15.333 36.667 44.666 80 87.999zM940 2048c43.333 -43.333 70 -72.666 80 -87.999v-688c-10 -15.333 -36.667 -44.666 -80 -87.999c-43.333 43.333 -70 72.666 -80 87.999v688
c10 15.333 36.667 44.666 80 87.999zM80 1024c43.333 -43.333 70 -72.666 80 -87.999v-688c-10 -15.333 -36.667 -44.666 -80 -87.999c-43.333 43.333 -70 72.666 -80 87.999v688c10 15.333 36.667 44.666 80 87.999zM940 1024c43.333 -43.333 70 -72.666 80 -87.999v-688
c-10 -15.333 -36.667 -44.666 -80 -87.999c-43.333 43.333 -70 72.666 -80 87.999v688c10 15.333 36.667 44.666 80 87.999zM172 160h688c15.333 -10 44.666 -36.667 87.999 -80c-43.333 -43.333 -72.666 -70 -87.999 -80h-688c-15.333 10 -44.666 36.667 -87.999 80
c43.333 43.333 72.666 70 87.999 80z" />
    <glyph glyph-name="p" unicode="p" horiz-adv-x="1380" 
d="M168 2208h688c15.333 -10 44.666 -36.667 87.999 -80c-43.333 -43.333 -72.666 -70 -87.999 -80h-688c-15.333 10 -44.666 36.667 -87.999 80c43.333 43.333 72.666 70 87.999 80zM80 2048c43.333 -43.333 70 -72.666 80 -87.999v-688
c-10 -15.333 -36.667 -44.666 -80 -87.999c-43.333 43.333 -70 72.666 -80 87.999v688c10 15.333 36.667 44.666 80 87.999zM940 2048c43.333 -43.333 70 -72.666 80 -87.999v-688c-10 -15.333 -36.667 -44.666 -80 -87.999c-43.333 43.333 -70 72.666 -80 87.999v688
c10 15.333 36.667 44.666 80 87.999zM172 1184h688c15.333 -10 44.666 -36.667 87.999 -80c-43.333 -43.333 -72.666 -70 -87.999 -80h-688c-15.333 10 -44.666 36.667 -87.999 80c43.333 43.333 72.666 70 87.999 80zM80 1024c43.333 -43.333 70 -72.666 80 -87.999v-848
c-10 -15.333 -36.667 -44.666 -80 -87.999c-43.333 43.333 -70 72.666 -80 87.999v848c10 15.333 36.667 44.666 80 87.999z" />
    <glyph glyph-name="q" unicode="q" horiz-adv-x="1386" 
d="M168 2206h688c15.333 -10 44.666 -36.667 87.999 -80c-43.333 -43.333 -72.666 -70 -87.999 -80h-688c-15.333 10 -44.666 36.667 -87.999 80c43.333 43.333 72.666 70 87.999 80zM80 2046c43.333 -43.333 70 -72.666 80 -87.999v-688
c-10 -15.333 -36.667 -44.666 -80 -87.999c-43.333 43.333 -70 72.666 -80 87.999v688c10 15.333 36.667 44.666 80 87.999zM940 2046c43.333 -43.333 70 -72.666 80 -87.999v-688c-10 -15.333 -36.667 -44.666 -80 -87.999c-43.333 43.333 -70 72.666 -80 87.999v688
c10 15.333 36.667 44.666 80 87.999zM80 1022c43.333 -43.333 70 -72.666 80 -87.999v-688c-10 -15.333 -36.667 -44.666 -80 -87.999c-43.333 43.333 -70 72.666 -80 87.999v688c10 15.333 36.667 44.666 80 87.999zM940 1022c43.333 -43.333 70 -72.666 80 -87.999v-688
c-10 -15.333 -36.667 -44.666 -80 -87.999c-43.333 43.333 -70 72.666 -80 87.999v688c10 15.333 36.667 44.666 80 87.999zM172 158h688c15.333 -10 44.666 -36.667 87.999 -80c-43.333 -43.333 -72.666 -70 -87.999 -80h-688c-15.333 10 -44.666 36.667 -87.999 80
c43.333 43.333 72.666 70 87.999 80zM512 -50c53.333 -48.667 80 -74 80 -76v-248c0 -2 -26.667 -27.333 -80 -76c-53.333 48.667 -80 74 -80 76v248c0 2 26.667 27.333 80 76z" />
    <glyph glyph-name="r" unicode="r" horiz-adv-x="1386" 
d="M168 2208h688c15.333 -10 44.666 -36.667 87.999 -80c-43.333 -43.333 -72.666 -70 -87.999 -80h-688c-15.333 10 -44.666 36.667 -87.999 80c43.333 43.333 72.666 70 87.999 80zM80 2048c43.333 -43.333 70 -72.666 80 -87.999v-688
c-10 -15.333 -36.667 -44.666 -80 -87.999c-43.333 43.333 -70 72.666 -80 87.999v688c10 15.333 36.667 44.666 80 87.999zM940 2048c43.333 -43.333 70 -72.666 80 -87.999v-688c-10 -15.333 -36.667 -44.666 -80 -87.999c-43.333 43.333 -70 72.666 -80 87.999v688
c10 15.333 36.667 44.666 80 87.999zM172 1184h688c15.333 -10 44.666 -36.667 87.999 -80c-43.333 -43.333 -72.666 -70 -87.999 -80h-688c-15.333 10 -44.666 36.667 -87.999 80c43.333 43.333 72.666 70 87.999 80zM80 1024c43.333 -43.333 70 -72.666 80 -87.999v-848
c-10 -15.333 -36.667 -44.666 -80 -87.999c-43.333 43.333 -70 72.666 -80 87.999v848c10 15.333 36.667 44.666 80 87.999zM228 948c90.667 -7.33301 136 -18 136 -32l652 -756v-68c0 -22.667 -2.66699 -40 -8 -52c-85.333 3.33301 -128 14 -128 32l-660 752
c2.66699 44 4 77.333 4 100v16z" />
    <glyph glyph-name="s" unicode="s" horiz-adv-x="1373" 
d="M168 2208h688c15.333 -10 44.666 -36.667 87.999 -80c-43.333 -43.333 -72.666 -70 -87.999 -80h-688c-15.333 10 -44.666 36.667 -87.999 80c43.333 43.333 72.666 70 87.999 80zM80 2048c43.333 -43.333 70 -72.666 80 -87.999v-688
c-10 -15.333 -36.667 -44.666 -80 -87.999c-43.333 43.333 -70 72.666 -80 87.999v688c10 15.333 36.667 44.666 80 87.999zM172 1184h688c15.333 -10 44.666 -36.667 87.999 -80c-43.333 -43.333 -72.666 -70 -87.999 -80h-688c-15.333 10 -44.666 36.667 -87.999 80
c43.333 43.333 72.666 70 87.999 80zM940 1024c43.333 -43.333 70 -72.666 80 -87.999v-688c-10 -15.333 -36.667 -44.666 -80 -87.999c-43.333 43.333 -70 72.666 -80 87.999v688c10 15.333 36.667 44.666 80 87.999zM172 160h688c15.333 -10 44.666 -36.667 87.999 -80
c-43.333 -43.333 -72.666 -70 -87.999 -80h-688c-15.333 10 -44.666 36.667 -87.999 80c43.333 43.333 72.666 70 87.999 80z" />
    <glyph glyph-name="t" unicode="t" horiz-adv-x="1373" 
d="M0 2208h1012v-4c0 -3.33301 -52 -55.333 -156 -156h-700c-3.33301 0 -55.333 52 -156 156v4zM496 2024c43.333 -43.333 70 -72.666 80 -87.999v-824c-10 -15.333 -36.667 -44.666 -80 -87.999c-43.333 43.333 -70 72.666 -80 87.999v824
c10 15.333 36.667 44.666 80 87.999zM496 948c43.333 -43.333 70 -72.666 80 -87.999v-772c-10 -15.333 -36.667 -44.666 -80 -87.999c-43.333 43.333 -70 72.666 -80 87.999v772c10 15.333 36.667 44.666 80 87.999z" />
    <glyph glyph-name="u" unicode="u" horiz-adv-x="1380" 
d="M80 2208c43.333 -43.333 70 -72.666 80 -88v-848c-10 -15.333 -36.667 -44.666 -80 -87.999c-43.333 43.333 -70 72.666 -80 87.999v848c10 15.333 36.667 44.666 80 88zM940 2208c43.333 -43.333 70 -72.666 80 -88v-848c-10 -15.333 -36.667 -44.666 -80 -87.999
c-43.333 43.333 -70 72.666 -80 87.999v848c10 15.333 36.667 44.666 80 88zM80 1024c43.333 -43.333 70 -72.666 80 -87.999v-688c-10 -15.333 -36.667 -44.666 -80 -87.999c-43.333 43.333 -70 72.666 -80 87.999v688c10 15.333 36.667 44.666 80 87.999zM940 1024
c2 0 28.667 -28 80 -84v-696c-51.333 -56 -78 -84 -80 -84s-28.667 28 -80 84v696c51.333 56 78 84 80 84zM172 160h688c15.333 -10 44.666 -36.667 87.999 -80c-43.333 -43.333 -72.666 -70 -87.999 -80h-688c-15.333 10 -44.666 36.667 -87.999 80
c43.333 43.333 72.666 70 87.999 80z" />
    <glyph glyph-name="v" unicode="v" horiz-adv-x="1373" 
d="M80 2208c43.333 -43.333 70 -72.666 80 -88v-848c-10 -15.333 -36.667 -44.666 -80 -87.999c-43.333 43.333 -70 72.666 -80 87.999v848c10 15.333 36.667 44.666 80 88zM940 2208c43.333 -43.333 70 -72.666 80 -88v-848c-10 -15.333 -36.667 -44.666 -80 -87.999
c-43.333 43.333 -70 72.666 -80 87.999v848c10 15.333 36.667 44.666 80 88zM80 1024c43.333 -43.333 70 -72.666 80 -87.999v-776c0 -3.33301 -52 -55.333 -156 -156h-4v932c10 15.333 36.667 44.666 80 87.999zM940 1024c3.33301 0 30 -26.667 80 -80v-196
c0 -3.33301 -26.667 -30 -80 -80c-3.33301 0 -30 26.667 -80 80v196c0 3.33301 26.667 30 80 80zM904 588h23.999c48 0 78.667 -2.66699 92 -8c0 -83.333 -14.667 -131.333 -44 -144c-289.333 -262.667 -450.666 -408 -483.999 -436h-232v4l548 500
c17.333 13.333 49.333 41.333 96 84z" />
    <glyph glyph-name="w" unicode="w" horiz-adv-x="1386" 
d="M80 2208c43.333 -43.333 70 -72.666 80 -88v-848c-10 -15.333 -36.667 -44.666 -80 -87.999c-43.333 43.333 -70 72.666 -80 87.999v848c10 15.333 36.667 44.666 80 88zM940 2208c43.333 -43.333 70 -72.666 80 -88v-848c-10 -15.333 -36.667 -44.666 -80 -87.999
c-43.333 43.333 -70 72.666 -80 87.999v848c10 15.333 36.667 44.666 80 88zM80 1024c43.333 -43.333 70 -72.666 80 -87.999v-688c-10 -15.333 -36.667 -44.666 -80 -87.999c-43.333 43.333 -70 72.666 -80 87.999v688c10 15.333 36.667 44.666 80 87.999zM940 1024
c2 0 28.667 -28 80 -84v-696c-51.333 -56 -78 -84 -80 -84s-28.667 28 -80 84v696c51.333 56 78 84 80 84zM512 856c3.33301 0 30 -26.667 80 -80v-448c0 -3.33301 -26.667 -30 -80 -80c-3.33301 0 -30 26.667 -80 80v448c0 3.33301 26.667 30 80 80zM172 160h688
c15.333 -10 44.666 -36.667 87.999 -80c-43.333 -43.333 -72.666 -70 -87.999 -80h-688c-15.333 10 -44.666 36.667 -87.999 80c43.333 43.333 72.666 70 87.999 80z" />
    <glyph glyph-name="x" unicode="x" horiz-adv-x="1380" 
d="M40 2212c77.333 -29.333 116 -52 116 -68l348 -752c-21.333 -72 -34.666 -108 -39.999 -108c-77.333 29.333 -116 52 -116 68l-348 752c21.333 72 34.666 108 39.999 108zM984 2208c24 -67.333 36 -104.666 36 -111.999l-360 -772l-108 -44
c-24 67.333 -36 104.666 -36 111.999l360 772zM168 1188h688c15.333 -10 44.666 -36.667 87.999 -80c-43.333 -43.333 -72.666 -70 -87.999 -80h-688c-15.333 10 -44.666 36.667 -87.999 80c43.333 43.333 72.666 70 87.999 80zM560 932c77.333 -29.333 116 -52 116 -68
l348 -752c-21.333 -72 -34.666 -108 -39.999 -108c-77.333 29.333 -116 52 -116 68l-348 752c21.333 72 34.666 108 39.999 108zM472 928c24 -67.333 36 -104.666 36 -111.999l-360 -772l-108 -44c-24 67.333 -36 104.666 -36 111.999l360 772z" />
    <glyph glyph-name="y" unicode="y" horiz-adv-x="1373" 
d="M80 2208c43.333 -43.333 70 -72.666 80 -88v-848c-10 -15.333 -36.667 -44.666 -80 -87.999c-43.333 43.333 -70 72.666 -80 87.999v848c10 15.333 36.667 44.666 80 88zM940 2208c43.333 -43.333 70 -72.666 80 -88v-848c-10 -15.333 -36.667 -44.666 -80 -87.999
c-43.333 43.333 -70 72.666 -80 87.999v848c10 15.333 36.667 44.666 80 88zM168 1184h688c15.333 -10 44.666 -36.667 87.999 -80c-43.333 -43.333 -72.666 -70 -87.999 -80h-688c-15.333 10 -44.666 36.667 -87.999 80c43.333 43.333 72.666 70 87.999 80zM940 1024
c2 0 28.667 -28 80 -84v-696c-51.333 -56 -78 -84 -80 -84s-28.667 28 -80 84v696c51.333 56 78 84 80 84zM172 160h688c15.333 -10 44.666 -36.667 87.999 -80c-43.333 -43.333 -72.666 -70 -87.999 -80h-688c-15.333 10 -44.666 36.667 -87.999 80
c43.333 43.333 72.666 70 87.999 80z" />
    <glyph glyph-name="z" unicode="z" horiz-adv-x="1386" 
d="M0 2208h1012v-4c-62 -67.333 -114 -119.333 -156 -156h-700c-3.33301 0 -55.333 52 -156 156v4zM980 1960c4.66699 -6 15.334 -43.333 32.001 -112c-217.333 -396 -332 -601.333 -344 -616c-5.33301 0 -40 -10.667 -104 -32c-4.66699 6 -15.334 43.333 -32.001 112
c217.333 396 332 601.333 344 616c5.33301 0 40 10.667 104 32zM476 1004c4.66699 -6 15.334 -43.333 32.001 -112c-217.333 -396 -332 -601.333 -344 -616c-5.33301 0 -40 -10.667 -104 -32c-4.66699 6 -15.334 43.333 -32.001 112c217.333 396 332 601.333 344 616
c5.33301 0 40 10.667 104 32zM856 160c52 -47.333 103.999 -99.333 155.999 -156v-4h-848c-2.66699 -0 -4 1.33301 -4 4l-8 -4h-152v4c98.667 104 153.334 156 164.001 156h692z" />
    <glyph glyph-name="braceleft" unicode="{" 
 />
    <glyph glyph-name="bar" unicode="|" 
 />
    <glyph glyph-name="braceright" unicode="}" 
 />
    <glyph glyph-name="asciitilde" unicode="~" 
 />
    <glyph glyph-name="exclamdown" unicode="&#xa1;" horiz-adv-x="672" 
 />
    <glyph glyph-name="cent" unicode="&#xa2;" horiz-adv-x="1139" 
 />
    <glyph glyph-name="sterling" unicode="&#xa3;" 
 />
    <glyph glyph-name="currency" unicode="&#xa4;" 
 />
    <glyph glyph-name="yen" unicode="&#xa5;" horiz-adv-x="1262" 
 />
    <glyph glyph-name="brokenbar" unicode="&#xa6;" 
 />
    <glyph glyph-name="section" unicode="&#xa7;" 
 />
    <glyph glyph-name="dieresis" unicode="&#xa8;" horiz-adv-x="1024" 
 />
    <glyph glyph-name="copyright" unicode="&#xa9;" horiz-adv-x="1674" 
 />
    <glyph glyph-name="ordfeminine" unicode="&#xaa;" horiz-adv-x="648" 
 />
    <glyph glyph-name="guillemotleft" unicode="&#xab;" horiz-adv-x="944" 
 />
    <glyph glyph-name="logicalnot" unicode="&#xac;" 
 />
    <glyph glyph-name="registered" unicode="&#xae;" horiz-adv-x="1674" 
 />
    <glyph glyph-name="macron" unicode="&#xaf;" horiz-adv-x="670" 
 />
    <glyph glyph-name="degree" unicode="&#xb0;" horiz-adv-x="674" 
 />
    <glyph glyph-name="plusminus" unicode="&#xb1;" 
 />
    <glyph glyph-name="uni00B2" unicode="&#xb2;" 
 />
    <glyph glyph-name="uni00B3" unicode="&#xb3;" 
 />
    <glyph glyph-name="acute" unicode="&#xb4;" horiz-adv-x="1024" 
 />
    <glyph glyph-name="mu" unicode="&#xb5;" horiz-adv-x="1180" 
 />
    <glyph glyph-name="paragraph" unicode="&#xb6;" horiz-adv-x="1024" 
 />
    <glyph glyph-name="periodcentered" unicode="&#xb7;" horiz-adv-x="508" 
 />
    <glyph glyph-name="periodcentered" unicode="&#x2219;" horiz-adv-x="508" 
 />
    <glyph glyph-name="cedilla" unicode="&#xb8;" horiz-adv-x="1024" 
 />
    <glyph glyph-name="uni00B9" unicode="&#xb9;" 
 />
    <glyph glyph-name="ordmasculine" unicode="&#xba;" horiz-adv-x="718" 
 />
    <glyph glyph-name="guillemotright" unicode="&#xbb;" horiz-adv-x="944" 
 />
    <glyph glyph-name="onequarter" unicode="&#xbc;" horiz-adv-x="1708" 
 />
    <glyph glyph-name="onehalf" unicode="&#xbd;" horiz-adv-x="1964" 
 />
    <glyph glyph-name="threequarters" unicode="&#xbe;" horiz-adv-x="1708" 
 />
    <glyph glyph-name="questiondown" unicode="&#xbf;" horiz-adv-x="748" 
 />
    <glyph glyph-name="Agrave" unicode="&#xc0;" horiz-adv-x="1540" 
 />
    <glyph glyph-name="Aacute" unicode="&#xc1;" horiz-adv-x="1540" 
 />
    <glyph glyph-name="Acircumflex" unicode="&#xc2;" horiz-adv-x="1540" 
 />
    <glyph glyph-name="Atilde" unicode="&#xc3;" horiz-adv-x="1540" 
 />
    <glyph glyph-name="Adieresis" unicode="&#xc4;" horiz-adv-x="1540" 
 />
    <glyph glyph-name="Aring" unicode="&#xc5;" horiz-adv-x="1540" 
 />
    <glyph glyph-name="AE" unicode="&#xc6;" horiz-adv-x="2118" 
 />
    <glyph glyph-name="Ccedilla" unicode="&#xc7;" horiz-adv-x="1399" 
 />
    <glyph glyph-name="Egrave" unicode="&#xc8;" horiz-adv-x="1151" 
 />
    <glyph glyph-name="Eacute" unicode="&#xc9;" horiz-adv-x="1151" 
 />
    <glyph glyph-name="Ecircumflex" unicode="&#xca;" horiz-adv-x="1151" 
 />
    <glyph glyph-name="Edieresis" unicode="&#xcb;" horiz-adv-x="1151" 
 />
    <glyph glyph-name="Igrave" unicode="&#xcc;" horiz-adv-x="657" 
 />
    <glyph glyph-name="Iacute" unicode="&#xcd;" horiz-adv-x="657" 
 />
    <glyph glyph-name="Icircumflex" unicode="&#xce;" horiz-adv-x="657" 
 />
    <glyph glyph-name="Idieresis" unicode="&#xcf;" horiz-adv-x="657" 
 />
    <glyph glyph-name="Eth" unicode="&#xd0;" horiz-adv-x="1518" 
 />
    <glyph glyph-name="Ntilde" unicode="&#xd1;" horiz-adv-x="1554" 
 />
    <glyph glyph-name="Ograve" unicode="&#xd2;" horiz-adv-x="1614" 
 />
    <glyph glyph-name="Oacute" unicode="&#xd3;" horiz-adv-x="1614" 
 />
    <glyph glyph-name="Ocircumflex" unicode="&#xd4;" horiz-adv-x="1614" 
 />
    <glyph glyph-name="Otilde" unicode="&#xd5;" horiz-adv-x="1614" 
 />
    <glyph glyph-name="Odieresis" unicode="&#xd6;" horiz-adv-x="1614" 
 />
    <glyph glyph-name="multiply" unicode="&#xd7;" 
 />
    <glyph glyph-name="Oslash" unicode="&#xd8;" horiz-adv-x="1614" 
 />
    <glyph glyph-name="Ugrave" unicode="&#xd9;" horiz-adv-x="1501" 
 />
    <glyph glyph-name="Uacute" unicode="&#xda;" horiz-adv-x="1501" 
 />
    <glyph glyph-name="Ucircumflex" unicode="&#xdb;" horiz-adv-x="1501" 
 />
    <glyph glyph-name="Udieresis" unicode="&#xdc;" horiz-adv-x="1501" 
 />
    <glyph glyph-name="Yacute" unicode="&#xdd;" horiz-adv-x="1233" 
 />
    <glyph glyph-name="Thorn" unicode="&#xde;" horiz-adv-x="1120" 
 />
    <glyph glyph-name="germandbls" unicode="&#xdf;" horiz-adv-x="1251" 
 />
    <glyph glyph-name="agrave" unicode="&#xe0;" horiz-adv-x="922" 
 />
    <glyph glyph-name="aacute" unicode="&#xe1;" horiz-adv-x="922" 
 />
    <glyph glyph-name="acircumflex" unicode="&#xe2;" horiz-adv-x="922" 
 />
    <glyph glyph-name="atilde" unicode="&#xe3;" horiz-adv-x="922" 
 />
    <glyph glyph-name="adieresis" unicode="&#xe4;" horiz-adv-x="922" 
 />
    <glyph glyph-name="aring" unicode="&#xe5;" horiz-adv-x="922" 
 />
    <glyph glyph-name="ae" unicode="&#xe6;" horiz-adv-x="1454" 
 />
    <glyph glyph-name="ccedilla" unicode="&#xe7;" horiz-adv-x="905" 
 />
    <glyph glyph-name="egrave" unicode="&#xe8;" horiz-adv-x="909" 
 />
    <glyph glyph-name="eacute" unicode="&#xe9;" horiz-adv-x="909" 
 />
    <glyph glyph-name="ecircumflex" unicode="&#xea;" horiz-adv-x="909" 
 />
    <glyph glyph-name="edieresis" unicode="&#xeb;" horiz-adv-x="909" 
 />
    <glyph glyph-name="igrave" unicode="&#xec;" horiz-adv-x="514" 
 />
    <glyph glyph-name="iacute" unicode="&#xed;" horiz-adv-x="514" 
 />
    <glyph glyph-name="icircumflex" unicode="&#xee;" horiz-adv-x="514" 
 />
    <glyph glyph-name="idieresis" unicode="&#xef;" horiz-adv-x="514" 
 />
    <glyph glyph-name="eth" unicode="&#xf0;" horiz-adv-x="1139" 
 />
    <glyph glyph-name="ntilde" unicode="&#xf1;" horiz-adv-x="1108" 
 />
    <glyph glyph-name="ograve" unicode="&#xf2;" horiz-adv-x="1010" 
 />
    <glyph glyph-name="oacute" unicode="&#xf3;" horiz-adv-x="1010" 
 />
    <glyph glyph-name="ocircumflex" unicode="&#xf4;" horiz-adv-x="1010" 
 />
    <glyph glyph-name="otilde" unicode="&#xf5;" horiz-adv-x="1010" 
 />
    <glyph glyph-name="odieresis" unicode="&#xf6;" horiz-adv-x="1010" 
 />
    <glyph glyph-name="divide" unicode="&#xf7;" 
 />
    <glyph glyph-name="oslash" unicode="&#xf8;" horiz-adv-x="1010" 
 />
    <glyph glyph-name="ugrave" unicode="&#xf9;" horiz-adv-x="1059" 
 />
    <glyph glyph-name="uacute" unicode="&#xfa;" horiz-adv-x="1059" 
 />
    <glyph glyph-name="ucircumflex" unicode="&#xfb;" horiz-adv-x="1059" 
 />
    <glyph glyph-name="udieresis" unicode="&#xfc;" horiz-adv-x="1059" 
 />
    <glyph glyph-name="yacute" unicode="&#xfd;" horiz-adv-x="868" 
 />
    <glyph glyph-name="thorn" unicode="&#xfe;" horiz-adv-x="1010" 
 />
    <glyph glyph-name="ydieresis" unicode="&#xff;" horiz-adv-x="868" 
 />
    <glyph glyph-name="dotlessi" unicode="&#x131;" horiz-adv-x="514" 
 />
    <glyph glyph-name="circumflex" unicode="&#x2c6;" horiz-adv-x="1024" 
 />
    <glyph glyph-name="caron" unicode="&#x2c7;" horiz-adv-x="1024" 
 />
    <glyph glyph-name="uni02C9" unicode="&#x2c9;" horiz-adv-x="1024" 
 />
    <glyph glyph-name="breve" unicode="&#x2d8;" horiz-adv-x="1024" 
 />
    <glyph glyph-name="dotaccent" unicode="&#x2d9;" horiz-adv-x="1024" 
 />
    <glyph glyph-name="ring" unicode="&#x2da;" horiz-adv-x="1024" 
 />
    <glyph glyph-name="ogonek" unicode="&#x2db;" horiz-adv-x="1024" 
 />
    <glyph glyph-name="tilde" unicode="&#x2dc;" horiz-adv-x="1024" 
 />
    <glyph glyph-name="hungarumlaut" unicode="&#x2dd;" horiz-adv-x="1024" 
 />
    <glyph glyph-name="endash" unicode="&#x2013;" horiz-adv-x="1108" 
 />
    <glyph glyph-name="emdash" unicode="&#x2014;" horiz-adv-x="2048" 
 />
    <glyph glyph-name="quoteleft" unicode="&#x2018;" horiz-adv-x="557" 
 />
    <glyph glyph-name="quoteright" unicode="&#x2019;" horiz-adv-x="557" 
 />
    <glyph glyph-name="quotesinglbase" unicode="&#x201a;" horiz-adv-x="557" 
 />
    <glyph glyph-name="quotedblleft" unicode="&#x201c;" horiz-adv-x="910" 
 />
    <glyph glyph-name="quotedblright" unicode="&#x201d;" horiz-adv-x="910" 
 />
    <glyph glyph-name="quotedblbase" unicode="&#x201e;" horiz-adv-x="910" 
 />
    <glyph glyph-name="dagger" unicode="&#x2020;" 
 />
    <glyph glyph-name="daggerdbl" unicode="&#x2021;" 
 />
    <glyph glyph-name="bullet" unicode="&#x2022;" horiz-adv-x="1024" 
 />
    <glyph glyph-name="ellipsis" unicode="&#x2026;" horiz-adv-x="2048" 
 />
    <glyph glyph-name="guilsinglleft" unicode="&#x2039;" horiz-adv-x="631" 
 />
    <glyph glyph-name="guilsinglright" unicode="&#x203a;" horiz-adv-x="631" 
 />
    <glyph glyph-name="fraction" unicode="&#x2044;" horiz-adv-x="342" 
 />
    <glyph glyph-name="fraction" unicode="&#x2215;" horiz-adv-x="342" 
 />
    <glyph glyph-name="franc" unicode="&#x20a3;" 
 />
    <glyph glyph-name="lira" unicode="&#x20a4;" 
 />
    <glyph glyph-name="peseta" unicode="&#x20a7;" horiz-adv-x="2028" 
 />
    <glyph glyph-name="Euro" unicode="&#x20ac;" 
 />
    <glyph glyph-name="afii61352" unicode="&#x2116;" horiz-adv-x="2271" 
 />
    <glyph glyph-name="trademark" unicode="&#x2122;" horiz-adv-x="1497" 
 />
    <glyph glyph-name="partialdiff" unicode="&#x2202;" 
 />
    <glyph glyph-name="Delta" unicode="&#x2206;" horiz-adv-x="1081" 
 />
    <glyph glyph-name="product" unicode="&#x220f;" horiz-adv-x="1515" 
 />
    <glyph glyph-name="summation" unicode="&#x2211;" horiz-adv-x="1206" 
 />
    <glyph glyph-name="minus" unicode="&#x2212;" 
 />
    <glyph glyph-name="radical" unicode="&#x221a;" 
 />
    <glyph glyph-name="infinity" unicode="&#x221e;" 
 />
    <glyph glyph-name="integral" unicode="&#x222b;" horiz-adv-x="665" 
 />
    <glyph glyph-name="approxequal" unicode="&#x2248;" 
 />
    <glyph glyph-name="lessequal" unicode="&#x2264;" 
 />
    <glyph glyph-name="greaterequal" unicode="&#x2265;" 
 />
    <glyph glyph-name="uniF001" unicode="&#xf001;" horiz-adv-x="1073" 
 />
    <glyph glyph-name="uniF001" unicode="&#xfb01;" horiz-adv-x="1073" 
 />
    <glyph glyph-name="uniF002" unicode="&#xf002;" horiz-adv-x="1081" 
 />
    <glyph glyph-name="uniF002" unicode="&#xfb02;" horiz-adv-x="1081" 
 />
    <glyph glyph-name=".null" horiz-adv-x="0" 
 />
    <glyph glyph-name="nonmarkingreturn" horiz-adv-x="508" 
 />
  </font>
</defs>
</svg>
